0
SECTION
2
HEADER
9
$ACADVER
1
AC1021
9
$INSUNITS
70
4
0
ENDSEC
0
SECTION
2
ENTITIES
0
LWPOLYLINE
8
BOUNDARY
90
6
70
1
10
0.0
20
0.0
10
11600.0
20
0.0
10
11600.0
20
6000.0
10
7000.0
20
6000.0
10
7000.0
20
8600.0
10
0.0
20
8600.0
0
LINE
8
WALLS
10
4600.0
20
0.0
11
4600.0
21
5000.0
0
LINE
8
WALLS
10
4600.0
20
5000.0
11
0.0
21
5000.0
0
LINE
8
WALLS
10
7000.0
20
0.0
11
7000.0
21
3600.0
0
LINE
8
WALLS
10
7000.0
20
4500.0
11
7000.0
21
6000.0
0
LINE
8
WALLS
10
2600.0
20
5000.0
11
2600.0
21
8600.0
0
ARC
8
DOORS
10
4600.0
20
5000.0
40
900.0
50
180.0
51
270.0
0
ARC
8
DOORS
10
7000.0
20
3600.0
40
900.0
50
270.0
51
0.0
0
CIRCLE
8
FIXTURE
10
1300.0
20
6800.0
40
450.0
0
TEXT
8
ANNOT
10
1800.0
20
2400.0
40
380.0
1
LIVING
0
TEXT
8
ANNOT
10
5300.0
20
2400.0
40
380.0
1
KITCHEN
0
TEXT
8
ANNOT
10
8700.0
20
2900.0
40
380.0
1
BEDROOM
0
TEXT
8
ANNOT
10
4300.0
20
6700.0
40
380.0
1
COURT
0
ENDSEC
0
EOF
